<svg xmlns="http://www.w3.org/2000/svg" version="1.1" xmlns:xlink="http://www.w3.org/1999/xlink" xmlns:svgjs="http://svgjs.dev/svgjs" viewBox="0 0 800 800" id="qqquad"><g shape-rendering="crispEdges" stroke-linejoin="round" fill="none" stroke-width="2" stroke="hsl(0, 0%, 100%)"><polygon points="800,0 800,200 600,200"></polygon><polygon points="400,200 400,0 600,200"></polygon><polygon points="600,200 600,400 400,200"></polygon><polygon points="800,400 600,400 800,200"></polygon><polygon points="400,0 200,0 400,200"></polygon><polygon points="0,200 200,0 0,0"></polygon><polygon points="200,200 200,400 0,200"></polygon><polygon points="400,200 400,400 200,400"></polygon><polygon points="400,400 300,500 400,500"></polygon><polygon points="200,500 300,400 200,400"></polygon><polygon points="300,500 300,600 200,500"></polygon><polygon points="300,500 400,600 300,600"></polygon><polygon points="200,400 200,600 0,400"></polygon><polygon points="200,600 0,600 200,800"></polygon><polygon points="400,600 200,600 400,800"></polygon><polygon points="800,600 800,400 600,400"></polygon><polygon points="400,600 400,400 600,400"></polygon><polygon points="600,600 600,800 400,800"></polygon><polygon points="800,600 600,600 600,800"></polygon></g><g fill="hsl(220, 62%, 45%)" stroke-width="3" stroke="hsl(220, 43%, 13%)"></g></svg>